<svg width="30" height="25" viewBox="0 0 30 25" fill="none" xmlns="http://www.w3.org/2000/svg">
<path fill-rule="evenodd" clip-rule="evenodd" d="M25.3411 6.44056L28.8239 5.75768C29.6382 5.59802 29.915 4.57319 29.2917 4.02531L24.9976 0.250465C24.3743 -0.297422 23.3934 0.108415 23.3395 0.936498L23.1082 4.48513L23.0127 4.42301C22.5496 4.12201 21.9302 4.25337 21.6292 4.71642L21.1804 5.40689C21.0303 5.63775 20.9877 5.90747 21.0401 6.15722C20.5315 6.05399 20.0069 6 19.4706 6C18.8526 6 18.2502 6.07168 17.6698 6.2078C17.2024 6.13441 16.7232 6.09631 16.2352 6.09631H14.8234C14.1949 6.09631 13.5812 6.1595 12.9882 6.27987C12.4408 6.1595 11.8742 6.09631 11.2941 6.09631C6.6159 6.09631 2.82349 10.2048 2.82349 15.2728C2.82349 20.3408 6.6159 24.4493 11.2941 24.4493C11.8742 24.4493 12.4408 24.3861 12.9882 24.2657C13.5812 24.3861 14.1949 24.4493 14.8234 24.4493H16.2352C16.8985 24.4493 17.5453 24.3789 18.1686 24.2452C18.593 24.3161 19.0278 24.3529 19.4706 24.3529C24.1488 24.3529 27.9412 20.2445 27.9412 15.1765C27.9412 12.1984 26.6317 9.55167 24.6024 7.87519C24.6499 7.82733 24.6932 7.77393 24.7314 7.71519L25.1802 7.02472C25.2974 6.84437 25.3491 6.6403 25.3411 6.44056ZM9.17659 15.9787C9.56643 15.9787 9.88247 15.6626 9.88247 15.2728C9.88247 14.8829 9.56643 14.5669 9.17659 14.5669C8.78674 14.5669 8.4707 14.8829 8.4707 15.2728C8.4707 15.6626 8.78674 15.9787 9.17659 15.9787ZM16.9411 15.2728C16.9411 15.6626 16.625 15.9787 16.2352 15.9787C15.8453 15.9787 15.5293 15.6626 15.5293 15.2728C15.5293 14.8829 15.8453 14.5669 16.2352 14.5669C16.625 14.5669 16.9411 14.8829 16.9411 15.2728ZM9.17659 17.3905C8.78674 17.3905 8.4707 17.7065 8.4707 18.0964C8.4707 18.4862 8.78674 18.8023 9.17659 18.8023H16.2354C16.6253 18.8023 16.9413 18.4862 16.9413 18.0964C16.9413 17.7065 16.6253 17.3905 16.2354 17.3905H9.17659Z" fill="#FC6111"/>
<circle cx="3.52941" cy="18.0963" r="3.52941" fill="#FFC37B"/>
</svg>
